<mxfile host="app.diagrams.net" modified="2024-05-22T13:50:09.190Z" agent="Mozilla/5.0 (Windows NT 10.0; Win64; x64) AppleWebKit/537.36 (KHTML, like Gecko) Chrome/121.0.0.0 Safari/537.36" version="24.4.6" etag="2FYMDlcMkkMI0KN7sS4p" type="github">
  <diagram name="PÃ¡gina-1" id="zzjLUDOAsODjTlvQZM6s">
    <mxGraphModel>
      <root>
        <mxCell id="0" />
        <mxCell id="1" parent="0" />
      </root>
    </mxGraphModel>
  </diagram>
</mxfile>
